<svg viewBox="0 0 400 300" xmlns="http://www.w3.org/2000/svg">
  <defs>
    <linearGradient id="bg2" x1="0%" y1="0%" x2="100%" y2="100%">
      <stop offset="0%" style="stop-color:#d4f7db;stop-opacity:1" />
      <stop offset="100%" style="stop-color:#a8e6c1;stop-opacity:1" />
    </linearGradient>
  </defs>
  <rect width="400" height="300" fill="url(#bg2)"/>
  <!-- Contract document -->
  <rect x="60" y="30" width="160" height="210" rx="6" fill="#fff" stroke="#52b788" stroke-width="2" opacity="0.95"/>
  <rect x="60" y="30" width="160" height="30" fill="#52b788"/>
  <text x="140" y="50" font-size="12" font-weight="bold" fill="#fff" text-anchor="middle">Contract #001</text>
  <!-- Contract details -->
  <text x="75" y="70" font-size="9" font-weight="bold" fill="#2d6a4f">Customer: Ahmed</text>
  <text x="75" y="85" font-size="9" fill="#666">Property: Unit 5A</text>
  <text x="75" y="100" font-size="9" fill="#666">Rent: 5,000 SAR</text>
  <text x="75" y="115" font-size="9" fill="#666">From: Jan 2024</text>
  <text x="75" y="130" font-size="9" fill="#666">To: Dec 2025</text>
  <rect x="65" y="150" width="150" height="20" rx="4" fill="#81c784" opacity="0.6"/>
  <text x="140" y="163" font-size="9" font-weight="bold" fill="#fff" text-anchor="middle">Active Contract</text>
  <line x1="75" y1="180" x2="205" y2="180" stroke="#c8e6c9" stroke-width="1"/>
  <text x="75" y="195" font-size="8" fill="#666">Next Payment: 15 Feb</text>
  
  <!-- Contract 2 -->
  <rect x="240" y="30" width="160" height="210" rx="6" fill="#fff" stroke="#52b788" stroke-width="2" opacity="0.95"/>
  <rect x="240" y="30" width="160" height="30" fill="#a5d6a7"/>
  <text x="320" y="50" font-size="12" font-weight="bold" fill="#fff" text-anchor="middle">Contract #002</text>
  <!-- Contract details -->
  <text x="255" y="70" font-size="9" font-weight="bold" fill="#2d6a4f">Customer: Fatima</text>
  <text x="255" y="85" font-size="9" fill="#666">Property: Villa 12</text>
  <text x="255" y="100" font-size="9" fill="#666">Rent: 8,500 SAR</text>
  <text x="255" y="115" font-size="9" fill="#666">From: Feb 2024</text>
  <text x="255" y="130" font-size="9" fill="#666">To: Jan 2026</text>
  <rect x="245" y="150" width="150" height="20" rx="4" fill="#c8e6c9" opacity="0.6"/>
  <text x="320" y="163" font-size="9" font-weight="bold" fill="#2d6a4f" text-anchor="middle">Active Contract</text>
  <line x1="255" y1="180" x2="385" y2="180" stroke="#c8e6c9" stroke-width="1"/>
  <text x="255" y="195" font-size="8" fill="#666">Next Payment: 20 Feb</text>
</svg>